<?xml version="1.0" encoding="UTF-8" standalone="no"?>
<svg
   width="152.468"
   height="40"
   viewBox="0 0 152.468 40"
   version="1.1"
   id="svg1751"
   sodipodi:docname="rizoma_black.svg"
   inkscape:version="1.1.2 (0a00cf5339, 2022-02-04)"
   xmlns:inkscape="http://www.inkscape.org/namespaces/inkscape"
   xmlns:sodipodi="http://sodipodi.sourceforge.net/DTD/sodipodi-0.dtd"
   xmlns="http://www.w3.org/2000/svg"
   xmlns:svg="http://www.w3.org/2000/svg">
  <defs
     id="defs1755" />
  <sodipodi:namedview
     id="namedview1753"
     pagecolor="#ffffff"
     bordercolor="#000000"
     borderopacity="0.25"
     inkscape:showpageshadow="2"
     inkscape:pageopacity="0.0"
     inkscape:pagecheckerboard="0"
     inkscape:deskcolor="#d1d1d1"
     showgrid="false"
     inkscape:zoom="2.877717"
     inkscape:cx="38.919741"
     inkscape:cy="19.63362"
     inkscape:window-width="1854"
     inkscape:window-height="1016"
     inkscape:window-x="0"
     inkscape:window-y="0"
     inkscape:window-maximized="1"
     inkscape:current-layer="svg1751"
     inkscape:pageshadow="2" />
  <path
     id="XMLID_00000005256510460637611780000003720628162501597573_"
     d="M20.045,11.582,13.136,37.363a6.68,6.68,0,0,1-8.182,4.724h0A6.682,6.682,0,0,1,.227,33.9L7.136,8.124A6.683,6.683,0,0,1,15.321,3.4h0A6.685,6.685,0,0,1,20.045,11.582Z"
     transform="translate(0.002 -2.317)"
     fill="#002663"
     style="fill:#70d44b;fill-opacity:1" />
  <path
     id="Trazado_22598"
     data-name="Trazado 22598"
     d="M76.332,8.054c-1.537,2.131-4.8,3.458-7.562.021L69.087,19c.946-3.058,1.787-4.42,2.394-4.893a2.457,2.457,0,0,1,1.825-.61c1.228,0,1.763.341,3.217,2.265l1.346-8.2S77.869,5.926,76.332,8.054Z"
     transform="translate(-50.29 -5.093)"
     fill="#002663"
     style="fill:#70d44b;fill-opacity:1" />
  <circle
     id="Elipse_1"
     data-name="Elipse 1"
     cx="6.683"
     cy="6.683"
     r="6.683"
     transform="translate(24.908)"
     fill="#002663"
     style="fill:#70d44b;fill-opacity:1" />
  <g
     id="Grupo_3943"
     data-name="Grupo 3943"
     transform="translate(51.807 7.75)"
     style="fill:#000000">
    <path
       id="Trazado_22599"
       data-name="Trazado 22599"
       d="M196.383,49.43a6.386,6.386,0,0,1,3.09-.68v1.741l-.43-.024a4.239,4.239,0,0,0-3.278,1.287,5.127,5.127,0,0,0-1.185,3.606v6.758h-1.79V48.849H194.5v2.6A4.338,4.338,0,0,1,196.383,49.43Z"
       transform="translate(-192.79 -43.4)"
       fill="#231f20"
       style="fill:#000000;fill-opacity:1" />
    <path
       id="Trazado_22600"
       data-name="Trazado 22600"
       d="M243.279,31.011a1.236,1.236,0,0,1-.379-.908,1.213,1.213,0,0,1,.379-.884,1.269,1.269,0,0,1,.932-.379,1.285,1.285,0,0,1,.932.365,1.171,1.171,0,0,1,.379.871,1.321,1.321,0,0,1-2.244.935Zm.027,3.278h1.79V47.559h-1.79Z"
       transform="translate(-229.435 -28.84)"
       fill="#231f20"
       style="fill:#000000;fill-opacity:1" />
    <path
       id="Trazado_22601"
       data-name="Trazado 22601"
       d="M289.844,60.908V62.4H279.05V61.212L287.4,50.643h-8.2V49.13h10.493v1.185l-8.349,10.593Z"
       transform="translate(-255.87 -43.678)"
       fill="#231f20"
       style="fill:#000000;fill-opacity:1" />
    <path
       id="Trazado_22602"
       data-name="Trazado 22602"
       d="M344.575,61.382a6.353,6.353,0,0,1-2.421-2.408,7.291,7.291,0,0,1,0-6.96,6.251,6.251,0,0,1,2.421-2.4,7.394,7.394,0,0,1,6.911,0,6.146,6.146,0,0,1,2.408,2.4,7.39,7.39,0,0,1,0,6.96,6.263,6.263,0,0,1-2.408,2.408,7.293,7.293,0,0,1-6.911,0Zm5.99-1.362a4.488,4.488,0,0,0,1.752-1.827,6.079,6.079,0,0,0,0-5.4,4.5,4.5,0,0,0-1.752-1.83,5.32,5.32,0,0,0-5.068,0,4.561,4.561,0,0,0-1.766,1.83,5.988,5.988,0,0,0,0,5.4,4.571,4.571,0,0,0,1.766,1.827,5.32,5.32,0,0,0,5.068,0Z"
       transform="translate(-301.371 -43.407)"
       fill="#231f20"
       style="fill:#000000;fill-opacity:1" />
    <path
       id="Trazado_22603"
       data-name="Trazado 22603"
       d="M436.261,50.18a5.771,5.771,0,0,1,1.424,4.238v7.693H435.9V54.6a4.5,4.5,0,0,0-1-3.152,3.628,3.628,0,0,0-2.813-1.086,4.228,4.228,0,0,0-3.254,1.274,4.962,4.962,0,0,0-1.185,3.518v6.962h-1.79V54.6a4.5,4.5,0,0,0-1-3.152,3.66,3.66,0,0,0-2.838-1.086,4.234,4.234,0,0,0-3.241,1.274,4.931,4.931,0,0,0-1.2,3.518v6.962H415.79V48.842H417.5v2.421a4.793,4.793,0,0,1,1.967-1.868,6.189,6.189,0,0,1,2.9-.656,5.689,5.689,0,0,1,2.889.707,4.343,4.343,0,0,1,1.827,2.093,5.177,5.177,0,0,1,2.107-2.056,6.514,6.514,0,0,1,3.141-.744A5.283,5.283,0,0,1,436.261,50.18Z"
       transform="translate(-355.866 -43.393)"
       fill="#231f20"
       style="fill:#000000;fill-opacity:1" />
    <path
       id="Trazado_22604"
       data-name="Trazado 22604"
       d="M535.736,50.048a5.017,5.017,0,0,1,1.387,3.845v8.223h-1.714V60.047a4.1,4.1,0,0,1-1.779,1.615,6.222,6.222,0,0,1-2.786.58,5.45,5.45,0,0,1-3.531-1.059,3.646,3.646,0,0,1-.089-5.525,5.977,5.977,0,0,1,3.9-1.035h4.211v-.806a3.4,3.4,0,0,0-.959-2.609,3.961,3.961,0,0,0-2.8-.895,7.133,7.133,0,0,0-2.421.417,6.128,6.128,0,0,0-1.994,1.147l-.806-1.336a7.16,7.16,0,0,1,2.421-1.325,9.411,9.411,0,0,1,2.977-.468A5.623,5.623,0,0,1,535.736,50.048Zm-2.018,10.09a4.155,4.155,0,0,0,1.615-2V55.965H531.17q-3.406,0-3.4,2.37a2.158,2.158,0,0,0,.884,1.827,4.018,4.018,0,0,0,2.472.669A4.716,4.716,0,0,0,533.718,60.138Z"
       transform="translate(-436.461 -43.4)"
       fill="#231f20"
       style="fill:#000000;fill-opacity:1" />
  </g>
</svg>
