<?xml version="1.0" encoding="utf-8"?>
<!-- Generator: Adobe Illustrator 17.0.0, SVG Export Plug-In . SVG Version: 6.00 Build 0)  -->
<!DOCTYPE svg PUBLIC "-//W3C//DTD SVG 1.1//EN" "http://www.w3.org/Graphics/SVG/1.1/DTD/svg11.dtd">
<svg version="1.1" id="Layer_1" xmlns="http://www.w3.org/2000/svg" xmlns:xlink="http://www.w3.org/1999/xlink" x="0px" y="0px"
	 width="46px" height="45px" viewBox="0 0 46 45" enable-background="new 0 0 46 45" xml:space="preserve">
<g>
	<path fill="#FFFFFF" d="M42,0H4C1.8,0,0,1.8,0,4v37c0,2.2,1.8,4,4,4h38c2.2,0,4-1.8,4-4V4C46,1.8,44.2,0,42,0z M37.191,24.332
		c-2.502,2.502-4.799,4.834-7.418,7.418c-1.59-1.389-3.018-2.943-4.502-4.438c2.975-3.027,5.977-6.029,9.004-9.004
		c-2.934-3.133-6.029-6.103-9.066-9.13c-4.55,4.497-9.072,9.02-13.569,13.568c4.401,4.645,9.051,9.04,13.504,13.632
		c1.623-1.379,2.996-3.007,4.566-4.438c1.568,1.368,2.975,2.901,4.438,4.375c-1.186,1.326-2.35,2.476-3.613,3.741
		c-1.422,1.421-2.842,2.877-5.834,2.662c-2.673-0.191-4.006-1.913-5.516-3.424c-3.493-3.492-6.974-6.975-10.651-10.651
		C6.993,27.103,5.046,25.59,5.3,22.24c0.189-2.496,2.037-4.192,3.551-5.707c3.223-3.223,6.167-6.103,9.257-9.193
		c1.89-1.89,3.711-4.852,7.734-4.501c1.693,0.147,3.078,1.048,4.186,2.155c2.643,2.644,5.225,5.225,7.861,7.862
		c1.172,1.171,2.508,2.514,2.727,4.628C40.994,21.154,38.861,22.663,37.191,24.332z"/>
</g>
</svg>
